# Blender v2.78 (sub 0) OBJ File: 'Border.blend'
# www.blender.org
o Cube.010_Cube.011
v -190.130066 24.507290 -7.240495
v -202.767776 42.909367 -35.452595
v -220.344681 6.668757 -68.974106
v -198.285141 -12.042035 -25.195040
v -197.642471 -25.657625 -31.680824
v -212.058792 -17.453674 -54.939751
v -219.025330 -22.040611 -80.508598
v -174.881393 51.526943 6.917339
v -170.671280 31.869076 19.086529
v -167.091614 25.906240 7.739954
v -175.210098 46.228062 -4.982330
v -226.423599 40.908504 -87.739067
v -226.029495 -7.699661 -86.257324
v -206.974838 49.795204 -66.176620
v -185.244827 33.887058 -36.111755
v -197.587067 53.956429 -36.497875
v -213.713760 36.310329 -86.858047
v -221.940598 34.170124 -92.525330
v -177.520203 44.628403 12.967098
v -176.244370 -1.138148 14.843021
v -223.563263 15.873360 -95.390396
v -179.555939 -19.016645 4.336382
v -208.334625 -20.518642 -64.777229
v -197.054504 1.880558 -57.439777
v -184.937134 -7.502094 -26.192425
v -219.331482 -13.659381 -88.113518
v -219.667130 51.893566 -82.159592
v -174.188690 -16.413631 2.415860
v -216.450043 5.829171 -89.332901
v -170.660126 3.978408 0.853453
v -170.128250 -2.807346 16.904383
s off
f 1 2 3 4
f 5 6 7
f 4 3 6
f 8 9 10 11
f 12 13 3
f 14 11 15
f 16 11 14
f 14 15 17
f 18 14 17
f 19 20 9
f 1 19 2
f 12 21 13
f 12 3 2
f 6 5 4
f 18 17 21
f 18 21 12
f 4 22 20
f 23 24 25 5
f 13 26 7
f 4 5 22
f 27 18 12
f 8 11 16
f 5 25 28
f 14 18 27
f 17 29 21
f 6 3 13 7
f 28 25 30 31
f 15 10 30 24
f 16 27 12 2
f 13 21 26
f 11 10 15
f 31 30 10 9
f 26 29 24 23
f 29 26 21
f 19 1 20
f 5 7 23
f 26 23 7
f 24 30 25
f 16 2 19 8
f 1 4 20
f 20 22 28 31
f 9 20 31
f 5 28 22
f 19 9 8
f 14 27 16
f 15 24 29 17
o Cube.007_Cube.008
v -237.904984 34.934807 -76.901108
v -227.574387 12.030759 -145.816498
v -233.672089 -11.993237 -96.201836
v -225.174393 -29.475176 -98.961166
v -227.171234 -18.941593 -128.485992
v -212.119202 -24.831057 -150.516647
v -229.545547 44.387085 -39.794518
v -211.455734 62.823502 -58.162540
v -224.118683 69.627075 -51.329803
v -218.403870 55.993382 -163.119003
v -219.294846 -6.417783 -161.853592
v -204.738205 67.403595 -128.605499
v -196.146332 46.978096 -86.807594
v -219.682343 72.746460 -101.505829
v -194.707199 50.089481 -147.721085
v -204.348282 47.341534 -160.449265
v -236.005386 60.769611 -51.150059
v -235.624710 2.006971 -48.635986
v -230.911240 58.562435 -107.021385
v -204.296829 23.849148 -163.906357
v -230.311325 -20.948391 -58.215740
v -195.239609 5.882880 -112.226280
v -208.943008 -22.876904 -129.443665
v -204.213028 -14.069857 -154.996155
v -211.520035 70.097816 -152.164536
v -206.636475 -6.164114 -81.072403
v -217.741837 -17.606215 -52.955376
v -197.254532 10.952753 -152.274139
v -209.143219 8.576445 -49.659508
v -226.051834 -0.136221 -40.339245
v -209.911087 36.731010 -41.739407
s off
f 32 33 34
f 35 36 37
f 34 33 36
f 38 39 40
f 41 42 33
f 43 39 44
f 45 39 43
f 43 44 46
f 47 43 46
f 48 49 38
f 32 48 50
f 41 51 42
f 41 33 50
f 36 35 34
f 47 46 51
f 47 51 41
f 34 52 49
f 53 35 54
f 42 55 37
f 34 35 52
f 56 47 41
f 40 39 45
f 35 57 58
f 43 47 56
f 46 59 51
f 36 42 37
f 58 60 61
f 44 60 53
f 56 50 45
f 42 51 55
f 39 62 44
f 61 62 38
f 59 54 55
f 59 55 51
f 48 32 49
f 35 37 54
f 55 54 37
f 53 60 57
f 45 48 40
f 32 34 49
f 49 58 61
f 38 49 61
f 35 58 52
f 48 38 40
f 43 56 45
f 53 46 44
f 32 50 33
f 38 62 39
f 53 57 35
f 36 33 42
f 58 57 60
f 44 62 60
f 56 41 50
f 61 60 62
f 59 53 54
f 45 50 48
f 49 52 58
f 53 59 46
o Cube.008_Cube.009
v -174.738571 42.909359 -0.204839
v -167.257278 -12.042040 8.122340
v -153.869156 24.507284 22.600897
v -168.687088 -35.426727 1.763559
v -189.687027 -17.453684 -15.780960
v -204.341721 -31.809717 -37.861229
v -201.966415 6.668752 -26.497118
v -134.941483 51.526939 31.244389
v -127.288292 25.906237 29.575285
v -138.996094 46.228058 20.051968
v -213.638657 40.908501 -42.397942
v -212.798508 -7.699667 -41.115334
v -188.395203 49.795197 -28.046570
v -158.312149 33.887051 -6.341719
v -170.149506 53.956421 -2.826465
v -201.296692 36.310322 -45.559017
v -210.888474 34.170120 -48.351276
v -135.543655 44.628399 37.817081
v -133.742569 -1.138154 39.196537
v -127.117668 31.869072 41.471901
v -213.329895 15.873355 -50.560589
v -140.190552 -28.785749 30.264605
v -176.230438 1.880553 -22.873146
v -189.245865 -30.287746 -26.290512
v -207.024185 -13.659389 -44.983944
v -205.470230 51.893559 -39.226585
v -154.900330 -7.502098 2.977468
v -135.699692 -26.182732 26.753481
v -204.672470 5.829165 -47.047684
v -132.841583 3.978402 24.160587
v -127.288498 -2.807352 39.229710
s off
f 63 64 65
f 66 67 68
f 64 69 67
f 70 71 72
f 73 74 69
f 75 72 76
f 77 72 75
f 75 76 78
f 79 75 78
f 80 81 82
f 65 80 63
f 73 83 74
f 73 69 63
f 67 66 64
f 79 78 83
f 79 83 73
f 64 84 81
f 85 66 86
f 74 87 68
f 64 66 84
f 88 79 73
f 70 72 77
f 66 89 90
f 75 79 88
f 78 91 83
f 69 68 67
f 90 92 93
f 76 92 85
f 88 63 77
f 74 83 87
f 72 71 76
f 93 71 82
f 91 86 87
f 91 87 83
f 80 65 81
f 66 68 86
f 87 86 68
f 85 92 89
f 63 70 77
f 65 64 81
f 81 90 93
f 82 81 93
f 66 90 84
f 80 82 70
f 75 88 77
f 85 78 76
f 63 69 64
f 70 82 71
f 85 89 66
f 69 74 68
f 90 89 92
f 76 71 92
f 88 73 63
f 93 92 71
f 91 85 86
f 63 80 70
f 81 84 90
f 85 91 78
o Cube.006_Cube.007
v -77.987274 18.628656 -180.061569
v -103.550789 -19.438871 -171.393768
v -148.524338 5.880633 -155.883926
v -89.953575 -28.871061 -173.068451
v -28.850101 -23.187780 -197.376831
v 31.766199 -26.365376 -214.377640
v 7.714786 -6.476990 -211.592453
v -190.496445 24.598459 -134.001587
v -198.030930 6.849751 -125.173317
v -164.436264 20.927670 -138.724625
v 52.914230 17.242556 -225.126938
v 49.408508 -16.430696 -224.152237
v -8.223052 23.398809 -195.932190
v -89.491051 12.378455 -161.122787
v -79.543373 26.281492 -174.774078
v 41.621479 14.057176 -210.891800
v 59.989548 12.574550 -221.974854
v -201.674271 19.819515 -134.671722
v -206.686020 -11.885219 -132.587372
v -220.006287 10.980500 -124.931137
v 67.403290 -0.100510 -224.801529
v -181.446487 -24.270531 -140.064667
v -34.500877 -9.794013 -181.869904
v -10.255549 -25.311033 -196.907471
v 48.491837 -20.559286 -217.501251
v 35.821941 24.852444 -215.685516
v -111.239189 -16.293837 -157.148865
v -181.241333 -22.467297 -134.893906
v 49.010593 -7.058615 -214.794373
v -180.455994 -8.340732 -131.604462
v -215.672745 -13.041555 -125.136864
s off
f 94 95 96
f 97 98 99
f 95 100 98
f 101 102 103
f 104 105 100
f 106 103 107
f 108 103 106
f 106 107 109
f 110 106 109
f 111 112 113
f 96 111 94
f 104 114 105
f 104 100 94
f 98 97 95
f 110 109 114
f 110 114 104
f 95 115 112
f 116 97 117
f 105 118 99
f 95 97 115
f 119 110 104
f 101 103 108
f 97 120 121
f 106 110 119
f 109 122 114
f 100 99 98
f 121 123 124
f 107 123 116
f 119 94 108
f 105 114 118
f 103 102 107
f 124 102 113
f 122 117 118
f 122 118 114
f 111 96 112
f 97 99 117
f 118 117 99
f 116 123 120
f 94 101 108
f 96 95 112
f 112 121 124
f 113 112 124
f 97 121 115
f 111 113 101
f 106 119 108
f 116 109 107
f 94 100 95
f 101 113 102
f 116 120 97
f 100 105 99
f 121 120 123
f 107 102 123
f 119 104 94
f 124 123 102
f 122 116 117
f 94 111 101
f 112 115 121
f 116 122 109
o Cube.004_Cube.005
v 141.487793 23.322926 134.137741
v 155.879761 -14.744600 111.301460
v 181.035110 10.574915 70.923439
v 146.375214 -24.176790 121.168175
v 114.236374 -18.493525 178.540878
v 77.872162 -21.671131 229.931610
v 94.795845 -1.782740 212.616409
v 199.844894 29.292753 27.487465
v 200.134415 11.544046 15.884756
v 182.582047 25.621958 47.573139
v 68.220596 21.936798 251.602661
v 70.329086 -11.736454 248.637115
v 97.307297 28.093063 190.413910
v 138.490311 17.072727 112.182571
v 139.365173 30.975760 129.051132
v 68.022499 18.751421 233.433304
v 60.740112 17.268789 253.612167
v 208.947784 24.513807 20.965939
v 211.526764 -7.190925 16.189848
v 217.047913 15.674799 1.852334
v 56.763390 4.593729 260.477966
v 196.636398 -19.576241 37.897476
v 108.855499 -5.099751 162.938263
v 99.500153 -20.616779 189.890839
v 66.850883 -15.865044 242.894470
v 75.546432 29.546690 233.502426
v 152.876358 -11.599558 95.395218
v 193.219543 -17.773006 34.011097
v 64.742706 -2.364371 241.119125
v 190.537323 -3.646439 31.951269
v 213.812073 -8.347258 4.742216
s off
f 125 126 127
f 128 129 130
f 126 131 129
f 132 133 134
f 135 136 131
f 137 134 138
f 139 134 137
f 137 138 140
f 141 137 140
f 142 143 144
f 127 142 125
f 135 145 136
f 135 131 125
f 129 128 126
f 141 140 145
f 141 145 135
f 126 146 143
f 147 128 148
f 136 149 130
f 126 128 146
f 150 141 135
f 132 134 139
f 128 151 152
f 137 141 150
f 140 153 145
f 131 130 129
f 152 154 155
f 138 154 147
f 150 125 139
f 136 145 149
f 134 133 138
f 155 133 144
f 153 148 149
f 153 149 145
f 142 127 143
f 128 130 148
f 149 148 130
f 147 154 151
f 125 132 139
f 127 126 143
f 143 152 155
f 144 143 155
f 128 152 146
f 142 144 132
f 137 150 139
f 147 140 138
f 125 131 126
f 132 144 133
f 147 151 128
f 131 136 130
f 152 151 154
f 138 133 154
f 150 135 125
f 155 154 133
f 153 147 148
f 125 142 132
f 143 146 152
f 147 153 140
o Cube_Cube.001
v 64.817368 23.322914 203.032440
v 72.038132 -14.744617 203.460052
v 84.764977 10.574892 203.968826
v 68.461464 -24.176804 200.489914
v 50.879040 -18.493528 202.821762
v 34.076649 -21.671125 198.489014
v 40.387302 -1.782739 203.908203
v 97.308716 29.292725 197.523102
v 100.001221 11.544017 191.788055
v 90.317627 25.621933 193.244431
v 27.781216 21.936806 201.478607
v 28.752209 -11.736447 201.737152
v 45.811665 28.093061 194.592911
v 69.419373 17.072716 189.175400
v 65.685028 30.975748 198.611557
v 31.906988 18.751429 191.945602
v 26.281994 17.268799 196.174133
v 100.064888 24.513779 201.877045
v 101.515152 -7.190956 201.601166
v 105.560043 15.674766 198.890686
v 24.159733 4.593739 196.342438
v 94.483101 -19.576267 200.169342
v 53.697617 -5.099756 190.218964
v 46.236065 -20.616781 196.181915
v 29.581404 -15.865036 195.829178
v 32.937103 29.546696 198.358307
v 75.256599 -11.599575 192.715836
v 94.896492 -17.773033 195.270142
v 29.694166 -2.364363 193.127258
v 94.994484 -3.646466 191.935059
v 104.449631 -8.347290 197.637634
s off
f 156 157 158
f 159 160 161
f 157 162 160
f 163 164 165
f 166 167 162
f 168 165 169
f 170 165 168
f 168 169 171
f 172 168 171
f 173 174 175
f 158 173 156
f 166 176 167
f 166 162 156
f 160 159 157
f 172 171 176
f 172 176 166
f 157 177 174
f 178 159 179
f 167 180 161
f 157 159 177
f 181 172 166
f 163 165 170
f 159 182 183
f 168 172 181
f 171 184 176
f 162 161 160
f 183 185 186
f 169 185 178
f 181 156 170
f 167 176 180
f 165 164 169
f 186 164 175
f 184 179 180
f 184 180 176
f 173 158 174
f 159 161 179
f 180 179 161
f 178 185 182
f 156 163 170
f 158 157 174
f 174 183 186
f 175 174 186
f 159 183 177
f 173 175 163
f 168 181 170
f 178 171 169
f 156 162 157
f 163 175 164
f 178 182 159
f 162 167 161
f 183 182 185
f 169 164 185
f 181 166 156
f 186 185 164
f 184 178 179
f 156 173 163
f 174 177 183
f 178 184 171
o Cube.005_Cube.006
v 138.040466 18.628643 -89.676147
v 127.252098 -19.438881 -114.419548
v 108.012505 5.880634 -157.928314
v 130.065125 -28.871073 -101.011513
v 159.429443 -23.187805 -42.170467
v 181.471130 -26.365412 16.800093
v 176.671783 -6.477023 -6.931608
v 82.675621 24.598471 -197.910004
v 73.244598 6.849763 -204.674789
v 89.575020 20.927675 -172.339752
v 193.962036 17.242514 36.968498
v 192.695770 -16.430738 33.557232
v 159.725830 23.398781 -21.495005
v 118.200760 12.378445 -99.545326
v 132.640778 26.281479 -90.781761
v 178.827057 14.057137 26.913771
v 191.416565 12.574506 44.283981
v 82.402718 19.819527 -209.104584
v 79.903984 -11.885205 -213.923126
v 71.153931 10.980517 -226.551834
v 194.857117 -0.100555 51.433544
v 89.478790 -24.270523 -189.402374
v 143.501999 -9.794035 -46.496204
v 160.526581 -25.311062 -23.602383
v 185.991241 -20.559328 33.203533
v 183.115692 24.852406 20.731390
v 112.410698 -16.293842 -120.881882
v 84.343643 -22.467289 -188.762833
v 183.337616 -7.058656 33.948242
v 81.131958 -8.340722 -187.703461
v 71.723625 -13.041539 -222.250977
s off
f 187 188 189
f 190 191 192
f 188 193 191
f 194 195 196
f 197 198 193
f 199 196 200
f 201 196 199
f 199 200 202
f 203 199 202
f 204 205 206
f 189 204 187
f 197 207 198
f 197 193 187
f 191 190 188
f 203 202 207
f 203 207 197
f 188 208 205
f 209 190 210
f 198 211 192
f 188 190 208
f 212 203 197
f 194 196 201
f 190 213 214
f 199 203 212
f 202 215 207
f 193 192 191
f 214 216 217
f 200 216 209
f 212 187 201
f 198 207 211
f 196 195 200
f 217 195 206
f 215 210 211
f 215 211 207
f 204 189 205
f 190 192 210
f 211 210 192
f 209 216 213
f 187 194 201
f 189 188 205
f 205 214 217
f 206 205 217
f 190 214 208
f 204 206 194
f 199 212 201
f 209 202 200
f 187 193 188
f 194 206 195
f 209 213 190
f 193 198 192
f 214 213 216
f 200 195 216
f 212 197 187
f 217 216 195
f 215 209 210
f 187 204 194
f 205 208 214
f 209 215 202
o Cube.002_Cube.003
v -30.895784 34.934757 133.349899
v -98.834480 12.030699 122.943359
v -50.294128 -11.993290 129.803787
v -55.254074 -29.475231 125.575630
v -82.581039 -18.941652 124.145424
v -107.554710 -24.831118 115.278992
v 1.827813 44.387035 132.389297
v -20.528887 62.823460 122.384857
v -10.568451 69.627022 128.904053
v -117.713890 55.993320 117.229790
v -116.272102 -6.417846 117.751511
v -88.909050 67.403526 113.559105
v -51.819839 46.978043 112.865776
v -59.178596 72.746399 122.781845
v -109.738953 50.089424 107.294182
v -119.087029 47.341473 110.817307
v -7.105459 60.769566 134.522812
v -4.836897 2.006922 134.545273
v -61.275898 58.562382 127.632996
v -122.365807 23.849083 110.515350
v -15.355105 -20.948441 131.270599
v -76.073807 5.882825 110.396423
v -88.535545 -22.876963 115.474251
v -113.975121 -14.069916 111.191582
v -109.276817 70.097755 114.864151
v -43.497780 -6.164164 118.272362
v -13.870187 -17.606262 125.766899
v -113.332619 10.952695 108.129433
v -13.140196 8.576401 121.977585
v 0.345494 -0.136267 130.698334
v -5.448530 36.730968 122.975822
s off
f 218 219 220
f 221 222 223
f 220 219 222
f 224 225 226
f 227 228 219
f 229 225 230
f 231 225 229
f 229 230 232
f 233 229 232
f 234 235 224
f 218 234 236
f 227 237 228
f 227 219 236
f 222 221 220
f 233 232 237
f 233 237 227
f 220 238 235
f 239 221 240
f 228 241 223
f 220 221 238
f 242 233 227
f 226 225 231
f 221 243 244
f 229 233 242
f 232 245 237
f 222 228 223
f 244 246 247
f 230 246 239
f 242 236 231
f 228 237 241
f 225 248 230
f 247 248 224
f 241 239 240
f 245 241 237
f 234 218 235
f 221 223 240
f 241 240 223
f 239 246 243
f 236 226 231
f 218 220 235
f 235 244 247
f 224 235 247
f 221 244 238
f 234 224 226
f 229 242 231
f 239 232 230
f 218 236 219
f 224 248 225
f 239 243 221
f 222 219 228
f 244 243 246
f 230 248 246
f 242 227 236
f 247 246 248
f 241 245 239
f 236 234 226
f 235 238 244
f 239 245 232
o Cube.003_Cube.004
v -112.951683 34.934776 107.204010
v -148.097946 12.030728 47.030964
v -121.751045 -11.993265 89.512009
v -116.859283 -29.475204 82.035675
v -147.674545 -32.248135 71.235802
v -139.001480 -24.831087 33.681473
v -83.179977 44.387054 130.877289
v -80.597618 62.823479 105.226631
v -86.181702 69.627045 118.487648
v -151.797501 55.993351 27.801090
v -162.451950 -19.724321 40.299385
v -119.516563 67.403564 46.127968
v -86.623268 46.978069 73.310982
v -114.174950 72.746429 76.610535
v -123.682083 50.089455 24.946016
v -139.172211 47.341503 21.071358
v -95.330978 60.769585 126.078209
v -93.458557 2.006942 127.798523
v -126.381470 58.562405 79.351097
v -141.298996 23.849117 18.345375
v -95.322960 -20.948420 117.003731
v -101.849014 5.882854 52.936775
v -123.318237 -22.876932 48.110424
v -135.648834 -14.069883 25.235575
v -139.567520 70.097786 32.021915
v -91.202248 -6.164142 84.354904
v -82.231819 -17.606243 113.224052
v -128.520752 10.952725 22.995001
v -73.466087 8.576420 110.402596
v -80.799164 -0.136249 128.263031
v -69.100128 36.730984 117.055130
s off
f 249 250 251
f 252 253 254
f 251 250 253
f 255 256 257
f 258 259 250
f 260 256 261
f 262 256 260
f 260 261 263
f 264 260 263
f 265 266 255
f 249 265 267
f 258 268 259
f 258 250 267
f 253 252 251
f 264 263 268
f 264 268 258
f 251 269 266
f 270 252 271
f 259 272 254
f 251 252 269
f 273 264 258
f 257 256 262
f 252 274 275
f 260 264 273
f 263 276 268
f 253 259 254
f 275 277 278
f 261 277 270
f 273 267 262
f 259 268 272
f 256 279 261
f 278 279 255
f 276 271 272
f 276 272 268
f 265 249 266
f 252 254 271
f 272 271 254
f 270 277 274
f 262 265 257
f 249 251 266
f 266 275 278
f 255 266 278
f 252 275 269
f 265 255 257
f 260 273 262
f 270 263 261
f 249 267 250
f 255 279 256
f 270 274 252
f 253 250 259
f 275 274 277
f 261 279 277
f 273 258 267
f 278 277 279
f 276 270 271
f 262 267 265
f 266 269 275
f 270 276 263
o Cube.009_Cube.010
v 73.362236 34.934826 -175.960266
v 7.507225 12.030768 -198.745590
v 55.164127 -11.993221 -183.658585
v 54.008858 -29.475161 -192.518051
v 24.618103 -18.941582 -195.965866
v 5.719071 -24.831047 -214.800385
v 111.372360 44.387108 -177.377838
v 96.630630 62.823524 -198.527451
v 101.026978 69.627098 -184.826767
v -7.821617 55.993389 -210.931686
v -6.740911 -6.417775 -209.823914
v 28.611786 67.403610 -218.040863
v 71.276375 46.978115 -218.827164
v 52.513767 72.746475 -198.383423
v 11.658258 50.089497 -231.405167
v -2.621220 47.341545 -224.259979
v 99.025291 60.769630 -173.108444
v 101.566551 2.006991 -173.021942
v 45.033775 58.562447 -188.355484
v -6.010332 23.849157 -224.944153
v 93.122795 -20.948372 -180.000961
v 46.454361 5.882899 -224.376877
v 27.017242 -22.876890 -214.060898
v 2.764337 -14.069843 -223.393585
v 4.208884 70.097832 -215.691391
v 74.991974 -6.164094 -207.463654
v 100.597603 -17.606194 -191.393539
v 6.715499 10.952766 -229.735382
v 105.413460 8.576470 -199.242508
v 111.477142 -0.136199 -180.912186
v 113.058708 36.731033 -197.036179
s off
f 280 281 282
f 283 284 285
f 282 281 284
f 286 287 288
f 289 290 281
f 291 287 292
f 293 287 291
f 291 292 294
f 295 291 294
f 296 297 286
f 280 296 298
f 289 299 290
f 289 281 298
f 284 283 282
f 295 294 299
f 295 299 289
f 282 300 297
f 301 283 302
f 290 303 285
f 282 283 300
f 304 295 289
f 288 287 293
f 283 305 306
f 291 295 304
f 294 307 299
f 284 290 285
f 306 308 309
f 292 308 301
f 304 298 293
f 290 299 303
f 287 310 292
f 309 310 286
f 307 302 303
f 307 303 299
f 296 280 297
f 283 285 302
f 303 302 285
f 301 308 305
f 293 296 288
f 280 282 297
f 297 306 309
f 286 297 309
f 283 306 300
f 296 286 288
f 291 304 293
f 301 294 292
f 280 298 281
f 286 310 287
f 301 305 283
f 284 281 290
f 306 305 308
f 292 310 308
f 304 289 298
f 309 308 310
f 307 301 302
f 293 298 296
f 297 300 306
f 301 307 294
o Cube.001_Cube.002
v 13.516726 42.909328 176.136932
v 17.999367 -12.042069 186.394485
v 26.154423 24.507256 204.349045
v 18.642029 -25.657660 179.908707
v 4.225692 -17.453709 156.649796
v -2.740828 -22.040646 131.080933
v -4.060196 6.668723 142.615433
v 41.403103 51.526909 218.506882
v 49.192883 25.906206 219.329483
v 41.074394 46.228027 206.607208
v -10.139103 40.908470 123.850456
v -9.744998 -7.699696 125.332214
v 9.309643 49.795170 145.412903
v 31.039665 33.887024 175.477783
v 18.697435 53.956394 175.091660
v 2.570730 36.310295 124.731483
v -5.656108 34.170090 119.064201
v 38.764294 44.628368 224.556641
v 40.040127 -1.138183 226.432556
v 45.613224 31.869041 230.676056
v -7.278769 15.873325 116.199150
v 36.728554 -19.016680 215.925919
v 19.229990 1.880524 154.149765
v 7.949868 -20.518679 146.812317
v -3.046986 -13.659415 123.476013
v -3.382633 51.893528 129.429947
v 31.347374 -7.502128 185.397110
v 42.095802 -16.413666 214.005402
v -0.165554 5.829136 122.256638
v 45.624363 3.978374 212.442993
v 46.156258 -2.807380 228.493912
s off
f 311 312 313
f 314 315 316
f 312 317 315
f 318 319 320
f 321 322 317
f 323 320 324
f 325 320 323
f 323 324 326
f 327 323 326
f 328 329 330
f 313 328 311
f 321 331 322
f 321 317 311
f 315 314 312
f 327 326 331
f 327 331 321
f 312 332 329
f 333 314 334
f 322 335 316
f 312 314 332
f 336 327 321
f 318 320 325
f 314 337 338
f 323 327 336
f 326 339 331
f 317 316 315
f 338 340 341
f 324 340 333
f 336 311 325
f 322 331 335
f 320 319 324
f 341 319 330
f 339 334 335
f 339 335 331
f 328 313 329
f 314 316 334
f 335 334 316
f 333 340 337
f 311 318 325
f 313 312 329
f 329 338 341
f 330 329 341
f 314 338 332
f 328 330 318
f 323 336 325
f 333 326 324
f 311 317 312
f 318 330 319
f 333 337 314
f 317 322 316
f 338 337 340
f 324 319 340
f 336 321 311
f 341 340 319
f 339 333 334
f 311 328 318
f 329 332 338
f 333 339 326
