# Blender v2.78 (sub 0) OBJ File: 'untitled.blend'
# www.blender.org
o Handle
v -0.022954 0.016941 0.000000
v -0.020904 0.382420 -0.000000
v -0.021207 0.016941 0.008784
v -0.019313 0.382420 0.008000
v -0.016231 0.016941 0.016231
v -0.014782 0.382420 0.014782
v -0.008784 0.016941 0.021207
v -0.008000 0.382420 0.019313
v 0.000000 0.016941 0.022954
v -0.000000 0.382420 0.020904
v 0.008784 0.016941 0.021207
v 0.008000 0.382420 0.019313
v 0.016231 0.016941 0.016231
v 0.014782 0.382420 0.014782
v 0.021207 0.016941 0.008784
v 0.019313 0.382420 0.008000
v 0.022954 0.016941 -0.000000
v 0.020904 0.382420 0.000000
v 0.021207 0.016941 -0.008784
v 0.019313 0.382420 -0.008000
v 0.016231 0.016941 -0.016231
v 0.014782 0.382420 -0.014782
v 0.008784 0.016941 -0.021207
v 0.008000 0.382420 -0.019313
v -0.000000 0.016941 -0.022954
v 0.000000 0.382420 -0.020904
v -0.008784 0.016941 -0.021207
v -0.008000 0.382420 -0.019313
v -0.016231 0.016941 -0.016231
v -0.014782 0.382420 -0.014782
v -0.021207 0.016941 -0.008784
v -0.019313 0.382420 -0.008000
o Head
v 0.000000 1.317719 -0.000000
v -0.047390 0.806191 -0.000000
v -0.020904 0.382420 -0.000000
v -0.051174 1.296177 -0.000000
v -0.043783 0.806191 0.018135
v -0.019313 0.382420 0.008000
v -0.047278 1.296177 0.019583
v -0.033510 0.806191 0.033510
v -0.014782 0.382420 0.014782
v -0.036185 1.296177 0.036185
v -0.018136 0.806191 0.043783
v -0.008000 0.382420 0.019313
v -0.019584 1.296177 0.047278
v -0.000000 0.806191 0.047390
v -0.000000 0.382420 0.020904
v -0.000000 1.296177 0.051174
v 0.018135 0.806191 0.043783
v 0.008000 0.382420 0.019313
v 0.019583 1.296177 0.047278
v 0.033510 0.806191 0.033510
v 0.014782 0.382420 0.014782
v 0.036185 1.296177 0.036185
v 0.043783 0.806191 0.018135
v 0.019313 0.382420 0.008000
v 0.047278 1.296177 0.019584
v 0.047390 0.806191 0.000000
v 0.020904 0.382420 0.000000
v 0.051174 1.296177 0.000000
v 0.043783 0.806191 -0.018135
v 0.019313 0.382420 -0.008000
v 0.047278 1.296177 -0.019583
v 0.033510 0.806191 -0.033510
v 0.014782 0.382420 -0.014782
v 0.036185 1.296177 -0.036185
v 0.018135 0.806191 -0.043783
v 0.008000 0.382420 -0.019313
v 0.019584 1.296177 -0.047278
v 0.000000 0.806191 -0.047390
v 0.000000 0.382420 -0.020904
v 0.000000 1.296177 -0.051174
v -0.018135 0.806191 -0.043783
v -0.008000 0.382420 -0.019313
v -0.019583 1.296177 -0.047278
v -0.033510 0.806191 -0.033510
v -0.014782 0.382420 -0.014782
v -0.036185 1.296177 -0.036185
v -0.043783 0.806191 -0.018136
v -0.019313 0.382420 -0.008000
v -0.047278 1.296177 -0.019584
