# Blender v2.79 (sub 0) OBJ File: 'Hammer.blend'
# www.blender.org
o Ball
v -0.000000 0.429885 -0.000000
v -0.170963 0.560488 -0.124210
v 0.065301 0.560487 -0.200978
v 0.211321 0.560489 -0.000000
v 0.065301 0.560487 0.200978
v -0.170963 0.560488 0.124210
v -0.065301 0.771812 -0.200978
v 0.170963 0.771812 -0.124210
v 0.170963 0.771812 0.124210
v -0.065301 0.771812 0.200978
v -0.211321 0.771811 -0.000000
v -0.000000 0.902414 -0.000000
v 0.055007 0.510801 -0.169298
v 0.038382 0.465170 -0.118131
v 0.018336 0.437458 -0.056432
v -0.048004 0.437458 -0.034877
v -0.100489 0.465170 -0.073008
v -0.144014 0.510801 -0.104631
v -0.125679 0.547474 -0.161064
v -0.062107 0.541937 -0.191141
v 0.007003 0.547474 -0.204176
v -0.192019 0.547474 0.069754
v -0.200978 0.541937 -0.000000
v -0.192019 0.547474 -0.069754
v -0.048004 0.437458 0.034877
v -0.100489 0.465170 0.073008
v -0.144014 0.510801 0.104631
v 0.178011 0.510802 -0.000000
v 0.124211 0.465171 -0.000000
v 0.059337 0.437458 -0.000000
v 0.114345 0.547474 -0.169299
v 0.162595 0.541937 -0.118131
v 0.196348 0.547474 -0.056433
v 0.055007 0.510801 0.169298
v 0.038382 0.465170 0.118131
v 0.018336 0.437458 0.056432
v 0.196348 0.547474 0.056433
v 0.162595 0.541937 0.118131
v 0.114345 0.547474 0.169299
v 0.007003 0.547474 0.204176
v -0.062107 0.541937 0.191141
v -0.125679 0.547474 0.161064
v -0.226017 0.725487 -0.034877
v -0.224701 0.666150 -0.073009
v -0.203352 0.606812 -0.104631
v -0.203352 0.606812 0.104631
v -0.224701 0.666150 0.073009
v -0.226017 0.725487 0.034877
v -0.036672 0.725488 -0.225732
v -0.000000 0.666150 -0.236264
v 0.036672 0.606811 -0.225732
v -0.162351 0.606811 -0.161065
v -0.138873 0.666150 -0.191142
v -0.103013 0.725488 -0.204177
v 0.203352 0.725488 -0.104631
v 0.224701 0.666150 -0.073009
v 0.226017 0.606812 -0.034877
v 0.103013 0.606811 -0.204177
v 0.138873 0.666150 -0.191142
v 0.162351 0.725488 -0.161065
v 0.162351 0.725488 0.161065
v 0.138873 0.666150 0.191142
v 0.103013 0.606811 0.204177
v 0.226017 0.606812 0.034877
v 0.224701 0.666150 0.073009
v 0.203352 0.725488 0.104631
v -0.103013 0.725488 0.204177
v -0.138873 0.666150 0.191142
v -0.162351 0.606811 0.161065
v 0.036672 0.606811 0.225732
v -0.000000 0.666150 0.236264
v -0.036672 0.725488 0.225732
v -0.196348 0.784825 -0.056433
v -0.162595 0.790362 -0.118131
v -0.114345 0.784826 -0.169299
v -0.007003 0.784826 -0.204176
v 0.062107 0.790363 -0.191141
v 0.125679 0.784826 -0.161064
v 0.192019 0.784825 -0.069754
v 0.200978 0.790362 -0.000000
v 0.192019 0.784825 0.069754
v 0.125679 0.784826 0.161064
v 0.062107 0.790363 0.191141
v -0.007003 0.784826 0.204176
v -0.114345 0.784826 0.169299
v -0.162595 0.790362 0.118131
v -0.196348 0.784825 0.056433
v -0.018336 0.894842 -0.056432
v -0.038382 0.867129 -0.118131
v -0.055007 0.821498 -0.169298
v -0.178011 0.821497 -0.000000
v -0.124211 0.867128 -0.000000
v -0.059337 0.894841 -0.000000
v 0.048004 0.894842 -0.034877
v 0.100489 0.867129 -0.073008
v 0.144014 0.821498 -0.104631
v 0.048004 0.894842 0.034877
v 0.100489 0.867129 0.073008
v 0.144014 0.821498 0.104631
v -0.018336 0.894842 0.056432
v -0.038382 0.867129 0.118131
v -0.055007 0.821498 0.169298
v -0.085480 0.877471 0.062105
v -0.150782 0.837113 0.062105
v -0.105660 0.837113 0.124211
v 0.032651 0.877471 0.100488
v 0.012472 0.837113 0.162594
v 0.085481 0.837113 0.138871
v 0.105660 0.877471 -0.000000
v 0.158490 0.837113 0.038383
v 0.158490 0.837113 -0.038383
v 0.032651 0.877471 -0.100488
v 0.085481 0.837113 -0.138871
v 0.012472 0.837113 -0.162594
v -0.085480 0.877471 -0.062105
v -0.105660 0.837113 -0.124211
v -0.150782 0.837113 -0.062105
v -0.203614 0.731452 0.100488
v -0.191142 0.666150 0.138872
v -0.158491 0.731452 0.162595
v 0.032651 0.731452 0.224700
v 0.073010 0.666149 0.224701
v 0.105661 0.731452 0.200978
v 0.223793 0.731452 0.038383
v 0.236264 0.666150 -0.000000
v 0.223793 0.731452 -0.038383
v 0.105661 0.731452 -0.200978
v 0.073010 0.666149 -0.224701
v 0.032652 0.731452 -0.224700
v -0.158491 0.731452 -0.162595
v -0.191142 0.666149 -0.138872
v -0.203614 0.731452 -0.100489
v -0.073010 0.666150 0.224701
v -0.105661 0.600847 0.200978
v -0.032652 0.600847 0.224700
v 0.191142 0.666150 0.138872
v 0.158491 0.600847 0.162595
v 0.203613 0.600847 0.100489
v 0.191142 0.666150 -0.138872
v 0.203613 0.600847 -0.100489
v 0.158491 0.600847 -0.162595
v -0.073010 0.666150 -0.224701
v -0.032652 0.600847 -0.224700
v -0.105661 0.600847 -0.200978
v -0.236264 0.666150 -0.000000
v -0.223793 0.600847 -0.038383
v -0.223793 0.600847 0.038383
v -0.085481 0.495186 0.138871
v -0.032651 0.454828 0.100488
v -0.012472 0.495186 0.162594
v 0.105660 0.495186 0.124211
v 0.085481 0.454828 0.062105
v 0.150783 0.495187 0.062105
v 0.150783 0.495187 -0.062105
v 0.085481 0.454828 -0.062105
v 0.105660 0.495186 -0.124211
v -0.158490 0.495186 0.038383
v -0.158490 0.495186 -0.038383
v -0.105660 0.454828 -0.000000
v -0.012472 0.495186 -0.162594
v -0.032651 0.454828 -0.100488
v -0.085482 0.495186 -0.138871
s 1
f 25 40 39
f 26 42 48
f 25 39 54
f 25 54 60
f 25 60 49
f 26 48 69
f 27 45 75
f 28 57 81
f 29 63 87
f 30 66 93
f 26 69 76
f 27 75 82
f 28 81 88
f 29 87 94
f 30 93 70
f 31 99 114
f 32 102 120
f 33 105 123
f 34 108 126
f 35 111 115
f 117 124 36
f 116 127 117
f 115 128 116
f 117 127 124
f 127 125 124
f 116 128 127
f 128 129 127
f 127 129 125
f 129 126 125
f 115 111 128
f 111 110 128
f 128 110 129
f 110 109 129
f 129 109 126
f 109 34 126
f 124 121 36
f 125 130 124
f 126 131 125
f 124 130 121
f 130 122 121
f 125 131 130
f 131 132 130
f 130 132 122
f 132 123 122
f 126 108 131
f 108 107 131
f 131 107 132
f 107 106 132
f 132 106 123
f 106 33 123
f 121 118 36
f 122 133 121
f 123 134 122
f 121 133 118
f 133 119 118
f 122 134 133
f 134 135 133
f 133 135 119
f 135 120 119
f 123 105 134
f 105 104 134
f 134 104 135
f 104 103 135
f 135 103 120
f 103 32 120
f 118 112 36
f 119 136 118
f 120 137 119
f 118 136 112
f 136 113 112
f 119 137 136
f 137 138 136
f 136 138 113
f 138 114 113
f 120 102 137
f 102 101 137
f 137 101 138
f 101 100 138
f 138 100 114
f 100 31 114
f 112 117 36
f 113 139 112
f 114 140 113
f 112 139 117
f 139 116 117
f 113 140 139
f 140 141 139
f 139 141 116
f 141 115 116
f 114 99 140
f 99 98 140
f 140 98 141
f 98 97 141
f 141 97 115
f 97 35 115
f 72 111 35
f 71 142 72
f 70 143 71
f 72 142 111
f 142 110 111
f 71 143 142
f 143 144 142
f 142 144 110
f 144 109 110
f 70 93 143
f 93 92 143
f 143 92 144
f 92 91 144
f 144 91 109
f 91 34 109
f 96 108 34
f 95 145 96
f 94 146 95
f 96 145 108
f 145 107 108
f 95 146 145
f 146 147 145
f 145 147 107
f 147 106 107
f 94 87 146
f 87 86 146
f 146 86 147
f 86 85 147
f 147 85 106
f 85 33 106
f 90 105 33
f 89 148 90
f 88 149 89
f 90 148 105
f 148 104 105
f 89 149 148
f 149 150 148
f 148 150 104
f 150 103 104
f 88 81 149
f 81 80 149
f 149 80 150
f 80 79 150
f 150 79 103
f 79 32 103
f 84 102 32
f 83 151 84
f 82 152 83
f 84 151 102
f 151 101 102
f 83 152 151
f 152 153 151
f 151 153 101
f 153 100 101
f 82 75 152
f 75 74 152
f 152 74 153
f 74 73 153
f 153 73 100
f 73 31 100
f 78 99 31
f 77 154 78
f 76 155 77
f 78 154 99
f 154 98 99
f 77 155 154
f 155 156 154
f 154 156 98
f 156 97 98
f 76 69 155
f 69 68 155
f 155 68 156
f 68 67 156
f 156 67 97
f 67 35 97
f 91 96 34
f 92 157 91
f 93 158 92
f 91 157 96
f 157 95 96
f 92 158 157
f 158 159 157
f 157 159 95
f 159 94 95
f 93 66 158
f 66 65 158
f 158 65 159
f 65 64 159
f 159 64 94
f 64 29 94
f 85 90 33
f 86 160 85
f 87 161 86
f 85 160 90
f 160 89 90
f 86 161 160
f 161 162 160
f 160 162 89
f 162 88 89
f 87 63 161
f 63 62 161
f 161 62 162
f 62 61 162
f 162 61 88
f 61 28 88
f 79 84 32
f 80 163 79
f 81 164 80
f 79 163 84
f 163 83 84
f 80 164 163
f 164 165 163
f 163 165 83
f 165 82 83
f 81 57 164
f 57 56 164
f 164 56 165
f 56 55 165
f 165 55 82
f 55 27 82
f 73 78 31
f 74 166 73
f 75 167 74
f 73 166 78
f 166 77 78
f 74 167 166
f 167 168 166
f 166 168 77
f 168 76 77
f 75 45 167
f 45 44 167
f 167 44 168
f 44 43 168
f 168 43 76
f 43 26 76
f 67 72 35
f 68 169 67
f 69 170 68
f 67 169 72
f 169 71 72
f 68 170 169
f 170 171 169
f 169 171 71
f 171 70 71
f 69 48 170
f 48 47 170
f 170 47 171
f 47 46 171
f 171 46 70
f 46 30 70
f 51 66 30
f 50 172 51
f 49 173 50
f 51 172 66
f 172 65 66
f 50 173 172
f 173 174 172
f 172 174 65
f 174 64 65
f 49 60 173
f 60 59 173
f 173 59 174
f 59 58 174
f 174 58 64
f 58 29 64
f 58 63 29
f 59 175 58
f 60 176 59
f 58 175 63
f 175 62 63
f 59 176 175
f 176 177 175
f 175 177 62
f 177 61 62
f 60 54 176
f 54 53 176
f 176 53 177
f 53 52 177
f 177 52 61
f 52 28 61
f 52 57 28
f 53 178 52
f 54 179 53
f 52 178 57
f 178 56 57
f 53 179 178
f 179 180 178
f 178 180 56
f 180 55 56
f 54 39 179
f 39 38 179
f 179 38 180
f 38 37 180
f 180 37 55
f 37 27 55
f 46 51 30
f 47 181 46
f 48 182 47
f 46 181 51
f 181 50 51
f 47 182 181
f 182 183 181
f 181 183 50
f 183 49 50
f 48 42 182
f 42 41 182
f 182 41 183
f 41 40 183
f 183 40 49
f 40 25 49
f 37 45 27
f 38 184 37
f 39 185 38
f 37 184 45
f 184 44 45
f 38 185 184
f 185 186 184
f 184 186 44
f 186 43 44
f 39 40 185
f 40 41 185
f 185 41 186
f 41 42 186
f 186 42 43
f 42 26 43

o Handle
v -0.061161 0.484924 0.061161
v -0.061161 0.484924 -0.061161
v 0.061161 0.484924 -0.061161
v 0.061161 0.484924 0.061161
v -0.031251 0.108939 0.031251
v -0.031251 0.108939 -0.031251
v 0.031251 0.108939 -0.031251
v 0.031251 0.108939 0.031251
v -0.099558 0.484924 -0.000000
v 0.000000 0.484924 0.071347
v 0.000000 0.484924 -0.071347
v 0.099558 0.484924 0.000000
v 0.000000 0.108810 0.036457
v 0.050868 0.109070 -0.000000
v 0.000000 0.108810 -0.036457
v -0.050868 0.109070 -0.000000
v -0.045674 0.344437 0.045674
v -0.045674 0.344437 -0.045674
v 0.045674 0.344437 -0.045674
v 0.045674 0.344437 0.045674
v 0.000000 0.344339 0.053282
v 0.074346 0.344538 0.000000
v 0.000000 0.344339 -0.053282
v -0.074346 0.344538 -0.000000
s 1
f 24 9 2 18
f 23 11 3 19
f 22 12 4 20
f 21 13 8 20
f 17 5 13 21
f 19 3 12 22
f 18 2 11 23
f 17 1 9 24
f 5 17 24 16
f 6 18 23 15
f 7 19 22 14
f 1 17 21 10
f 10 21 20 4
f 14 22 20 8
f 15 23 19 7
f 16 24 18 6
