# Blender v2.79 (sub 0) OBJ File: 'Hammer.blend'
# www.blender.org
o Head
v 0.294466 0.764637 -0.176847
v 0.294466 0.790380 -0.173459
v 0.294466 0.815134 -0.163427
v 0.294466 0.837948 -0.147136
v 0.294466 0.857944 -0.125212
v 0.294466 0.874354 -0.098498
v 0.294466 0.886548 -0.068020
v 0.294466 0.764637 0.176847
v 0.294466 0.790380 0.173459
v 0.294466 0.815134 0.163427
v 0.294466 0.837948 0.147136
v 0.294466 0.857944 0.125212
v 0.294466 0.874354 0.098498
v 0.294466 0.886548 0.068020
v 0.294466 0.896593 -0.000000
v 0.294466 0.764637 -0.000000
v 0.294466 0.667880 -0.176847
v 0.294466 0.642137 -0.173459
v 0.294466 0.617383 -0.163427
v 0.294466 0.594570 -0.147136
v 0.294466 0.574573 -0.125212
v 0.294466 0.558163 -0.098498
v 0.294466 0.545969 -0.068020
v 0.294466 0.667880 0.176847
v 0.294466 0.642137 0.173459
v 0.294466 0.617383 0.163427
v 0.294466 0.594570 0.147136
v 0.294466 0.574573 0.125212
v 0.294466 0.558163 0.098498
v 0.294466 0.545969 0.068020
v 0.294466 0.538460 -0.000000
v 0.294466 0.667880 -0.000000
v 0.294466 0.764637 -0.176847
v 0.294466 0.790380 -0.173459
v 0.294466 0.815134 -0.163427
v 0.294466 0.837948 -0.147136
v 0.294466 0.857944 -0.125212
v 0.294466 0.874354 -0.098498
v 0.294466 0.886548 -0.068020
v 0.294466 0.896593 -0.000000
v 0.294466 0.764637 0.176847
v 0.294466 0.790380 0.173459
v 0.294466 0.815134 0.163427
v 0.294466 0.837948 0.147136
v 0.294466 0.857944 0.125212
v 0.294466 0.874354 0.098498
v 0.294466 0.886548 0.068020
v 0.294466 0.667880 -0.176847
v 0.294466 0.642137 -0.173459
v 0.294466 0.617383 -0.163427
v 0.294466 0.594570 -0.147136
v 0.294466 0.574573 -0.125212
v 0.294466 0.558163 -0.098498
v 0.294466 0.545969 -0.068020
v 0.294466 0.538460 -0.000000
v 0.294466 0.667880 0.176847
v 0.294466 0.642137 0.173459
v 0.294466 0.617383 0.163427
v 0.294466 0.594570 0.147136
v 0.294466 0.574573 0.125212
v 0.294466 0.558163 0.098498
v 0.294466 0.545969 0.068020
v -0.294466 0.764637 -0.176847
v -0.294466 0.790380 -0.173459
v -0.294466 0.815134 -0.163427
v -0.294466 0.837948 -0.147136
v -0.294466 0.857944 -0.125212
v -0.294466 0.874354 -0.098498
v -0.294466 0.886548 -0.068020
v -0.294466 0.764637 0.176847
v -0.294466 0.790380 0.173459
v -0.294466 0.815134 0.163427
v -0.294466 0.837948 0.147136
v -0.294466 0.857944 0.125212
v -0.294466 0.874354 0.098498
v -0.294466 0.886548 0.068020
v -0.294466 0.896593 -0.000000
v -0.294466 0.764637 -0.000000
v -0.294466 0.667880 -0.176847
v -0.294466 0.642137 -0.173459
v -0.294466 0.617383 -0.163427
v -0.294466 0.594570 -0.147136
v -0.294466 0.574573 -0.125212
v -0.294466 0.558163 -0.098498
v -0.294466 0.545969 -0.068020
v -0.294466 0.667880 0.176847
v -0.294466 0.642137 0.173459
v -0.294466 0.617383 0.163427
v -0.294466 0.594570 0.147136
v -0.294466 0.574573 0.125212
v -0.294466 0.558163 0.098498
v -0.294466 0.545969 0.068020
v -0.294466 0.538460 -0.000000
v -0.294466 0.667880 -0.000000
v -0.294466 0.764637 -0.176847
v -0.294466 0.790380 -0.173459
v -0.294466 0.815134 -0.163427
v -0.294466 0.837948 -0.147136
v -0.294466 0.857944 -0.125212
v -0.294466 0.874354 -0.098498
v -0.294466 0.886548 -0.068020
v -0.294466 0.896593 -0.000000
v -0.294466 0.764637 0.176847
v -0.294466 0.790380 0.173459
v -0.294466 0.815134 0.163427
v -0.294466 0.837948 0.147136
v -0.294466 0.857944 0.125212
v -0.294466 0.874354 0.098498
v -0.294466 0.886548 0.068020
v -0.294466 0.667880 -0.176847
v -0.294466 0.642137 -0.173459
v -0.294466 0.617383 -0.163427
v -0.294466 0.594570 -0.147136
v -0.294466 0.574573 -0.125212
v -0.294466 0.558163 -0.098498
v -0.294466 0.545969 -0.068020
v -0.294466 0.538460 -0.000000
v -0.294466 0.667880 0.176847
v -0.294466 0.642137 0.173459
v -0.294466 0.617383 0.163427
v -0.294466 0.594570 0.147136
v -0.294466 0.574573 0.125212
v -0.294466 0.558163 0.098498
v -0.294466 0.545969 0.068020
s 1
f 62 63 64 40 25 58 59 60 61
f 70 69 68 67 66 32 40 64 71
f 77 76 75 74 73 41 56 79 78
f 85 86 79 56 48 81 82 83 84
f 25 40 32 48 56 41
f 124 123 122 121 120 87 102 126 125
f 132 133 126 102 94 128 129 130 131
f 139 140 141 118 103 135 136 137 138
f 147 146 145 144 143 110 118 141 148
f 87 103 118 110 94 102

o Handle
v -0.023484 0.466229 0.023484
v -0.023484 0.466229 -0.023484
v 0.023484 0.466229 -0.023484
v 0.023484 0.466229 0.023484
v -0.038227 0.466229 -0.000000
v 0.000000 0.466229 0.027395
v 0.000000 0.466229 -0.027395
v 0.038227 0.466229 -0.000000
v -0.021514 0.368018 0.021514
v -0.021514 0.368018 -0.021514
v 0.021514 0.368018 -0.021514
v 0.021514 0.368018 0.021514
v 0.000000 0.368018 0.025097
v 0.035021 0.368018 -0.000000
v 0.000000 0.368018 -0.025097
v -0.035021 0.368018 -0.000000
v -0.021134 -0.015008 0.021134
v -0.021134 -0.015008 -0.021134
v 0.021134 -0.015008 -0.021134
v 0.021134 -0.015008 0.021134
v 0.000000 -0.015008 0.024654
v 0.034403 -0.015008 -0.000000
v 0.000000 -0.015008 -0.024654
v -0.034403 -0.015008 -0.000000
s 1
f 16 5 2 10
f 15 7 3 11
f 14 8 4 12
f 11 3 8 14
f 10 2 7 15
f 9 1 5 16
f 1 9 13 6
f 6 13 12 4
